# xmcd
#
# Track frame offsets: 
#        150
#        10181
#        23033
#        37310
#        46353
#        57067
#        68709
#        78930
#        91459
#        102822
#        113514
#        128530
#        147476
#        161167
#        175635
#        188072
#        202256
#        215677
#
# Disc length: 3095 seconds
#
# Revision: 0
# Processed by: cddbd v1.5.2PL0 Copyright (c) Steve Scherf et al.
# Submitted via: ExactAudioCopy v1.0b1
#
DISCID=f50c1512
DTITLE=Claude François - Master Série
DYEAR=2009
DGENRE=Blues
TTITLE0=belles ! Belles ! Belles !
TTITLE1=Si j'avais un marteau
TTITLE2=pauvre petite filel riche
TTITLE3=Marche tout droit
TTITLE4=J'y pense et puis j'oublie
TTITLE5=Donne, Donna
TTITLE6=Même si tu revenais
TTITLE7=Quand un bateau pase
TTITLE8=Le jouet extraordinaire
TTITLE9=Les choses de la maison
TTITLE10=Mais quand le matin
TTITLE11=Comme d'habitude
TTITLE12=Une larme m'a trahi
TTITLE13=Si douce à mon souvenir
TTITLE14=Stop au nom de l'amour
TTITLE15=Et pourtant le temps passe
TTITLE16=C'est la même chanson
TTITLE17=Y'a le printemps qui chante
EXTD=
EXTT0=
EXTT1=
EXTT2=
EXTT3=
EXTT4=
EXTT5=
EXTT6=
EXTT7=
EXTT8=
EXTT9=
EXTT10=
EXTT11=
EXTT12=
EXTT13=
EXTT14=
EXTT15=
EXTT16=
EXTT17=
PLAYORDER=
